<svg width="201" height="201" viewBox="0 0 201 201" fill="none" xmlns="http://www.w3.org/2000/svg">
<circle cx="100.5" cy="100.5" r="100.5" fill="#21AD75"/>
<path d="M117.872 76.456C115.312 76.456 111.76 76.04 107.216 75.208C100.816 80.072 94.896 82.504 89.456 82.504C89.264 82.504 89.072 82.504 88.88 82.504C84.976 82.44 81.904 81.416 79.664 79.432C77.488 77.384 76.4 74.696 76.4 71.368C76.4 67.976 77.488 65.224 79.664 63.112C81.904 61 85.2 59.944 89.552 59.944C92.432 59.944 97.04 60.904 103.376 62.824C110.032 64.808 114.992 65.8 118.256 65.8C123.632 65.8 127.184 63.88 128.912 60.04L132.656 62.632C131.248 71.848 126.32 76.456 117.872 76.456ZM85.904 74.248C85.904 75.848 87.28 76.648 90.032 76.648C92.784 76.648 96.144 75.624 100.112 73.576C94.48 72.168 90.608 71.464 88.496 71.464C87.792 71.464 87.184 71.752 86.672 72.328C86.16 72.84 85.904 73.48 85.904 74.248ZM112.112 81.352L110.576 91.624H124.88C125.456 92.968 125.744 94.28 125.744 95.56C125.744 96.84 125.136 97.928 123.92 98.824C122.704 99.656 121.168 100.072 119.312 100.072H109.232L109.136 100.936C117.2 104.776 121.232 110.472 121.232 118.024C121.232 123.72 119.728 127.752 116.72 130.12C113.712 132.424 110.16 133.576 106.064 133.576C101.968 133.576 98.8 132.552 96.56 130.504C94.32 128.392 93.2 125.608 93.2 122.152C93.2 121.576 93.264 120.84 93.392 119.944L95.984 100.072H86.96C87.344 96.424 87.664 93.608 87.92 91.624H97.136L98.192 83.176C101.52 81.576 104.304 80.776 106.544 80.776C108.784 80.776 110.64 80.968 112.112 81.352ZM109.04 124.84C110.576 124.84 111.92 124.296 113.072 123.208C114.224 122.056 114.8 120.264 114.8 117.832C114.8 113.032 112.624 109.352 108.272 106.792C107.248 113.896 106.704 118.344 106.64 120.136C106.64 121.864 106.864 123.08 107.312 123.784C107.824 124.488 108.4 124.84 109.04 124.84Z" fill="white"/>
</svg>
